<svg width="2500" height="2500" viewBox="400 350 1700 1800" version="1.1" xmlns="http://www.w3.org/2000/svg" ><desc>Binarized and Traced by BDFM https://bitmap.designfamilymarket.com/</desc><path fill="rgb(0,0,0)" d="M 1338 400 L 1425 400 L 1425 425 L 1488 425 L 1488 450 L 1538 450 L 1538 475 L 1588 475 L 1588 500 L 1625 500 L 1625 525 L 1663 525 L 1663 550 L 1688 550 L 1688 575 L 1725 575 L 1725 600 L 1738 600 L 1738 625 L 1750 625 L 1750 650 L 1763 650 L 1763 675 L 1775 675 L 1775 750 L 1838 750 L 1838 775 L 1900 775 L 1900 800 L 1925 800 L 1925 825 L 1950 825 L 1950 850 L 1963 850 L 1963 875 L 1988 875 L 1988 925 L 2000 925 L 2000 950 L 2013 950 L 2013 975 L 2025 975 L 2025 1025 L 2038 1025 L 2038 1075 L 2050 1075 L 2050 1150 L 2063 1150 L 2063 1225 L 2050 1225 L 2050 1275 L 2038 1275 L 2038 1300 L 2025 1300 L 2025 1325 L 2000 1325 L 2000 1350 L 1988 1350 L 1988 1375 L 1963 1375 L 1963 1400 L 1938 1400 L 1938 1425 L 1913 1425 L 1913 1475 L 1925 1475 L 1925 1500 L 1938 1500 L 1938 1550 L 1950 1550 L 1950 1575 L 1963 1575 L 1963 1725 L 1950 1725 L 1950 1750 L 1938 1750 L 1938 1775 L 1925 1775 L 1925 1825 L 1900 1825 L 1900 1850 L 1888 1850 L 1888 1875 L 1863 1875 L 1863 1900 L 1838 1900 L 1838 1925 L 1800 1925 L 1800 1950 L 1725 1950 L 1725 1975 L 1600 1975 L 1600 1950 L 1463 1950 L 1463 1925 L 1425 1925 L 1425 1950 L 1350 1950 L 1350 1975 L 1313 1975 L 1313 2000 L 1263 2000 L 1263 2025 L 1225 2025 L 1225 2050 L 1188 2050 L 1188 2075 L 1125 2075 L 1125 2100 L 963 2100 L 963 2075 L 900 2075 L 900 2050 L 863 2050 L 863 2025 L 825 2025 L 825 2000 L 800 2000 L 800 1975 L 775 1975 L 775 1950 L 750 1950 L 750 1925 L 738 1925 L 738 1900 L 725 1900 L 725 1875 L 713 1875 L 713 1850 L 700 1850 L 700 1725 L 713 1725 L 713 1650 L 675 1650 L 675 1625 L 613 1625 L 613 1600 L 575 1600 L 575 1575 L 538 1575 L 538 1550 L 525 1550 L 525 1525 L 500 1525 L 500 1500 L 488 1500 L 488 1475 L 475 1475 L 475 1425 L 463 1425 L 463 1350 L 450 1350 L 450 1200 L 438 1200 L 438 1150 L 450 1150 L 450 1050 L 463 1050 L 463 1000 L 475 1000 L 475 975 L 488 975 L 488 950 L 513 950 L 513 925 L 538 925 L 538 900 L 588 900 L 588 875 L 688 875 L 688 800 L 700 800 L 700 750 L 713 750 L 713 725 L 725 725 L 725 700 L 738 700 L 738 675 L 750 675 L 750 650 L 775 650 L 775 625 L 800 625 L 800 600 L 813 600 L 813 575 L 850 575 L 850 550 L 875 550 L 875 525 L 900 525 L 900 500 L 938 500 L 938 475 L 988 475 L 988 450 L 1100 450 L 1100 475 L 1138 475 L 1138 500 L 1175 500 L 1175 525 L 1200 525 L 1200 550 L 1213 550 L 1213 525 L 1225 525 L 1225 500 L 1238 500 L 1238 475 L 1263 475 L 1263 450 L 1288 450 L 1288 425 L 1338 425 Z M 1350 475 L 1350 500 L 1325 500 L 1325 525 L 1300 525 L 1300 550 L 1288 550 L 1288 575 L 1275 575 L 1275 600 L 1250 600 L 1250 625 L 1163 625 L 1163 600 L 1138 600 L 1138 575 L 1113 575 L 1113 550 L 1075 550 L 1075 525 L 1000 525 L 1000 550 L 963 550 L 963 575 L 938 575 L 938 600 L 900 600 L 900 625 L 875 625 L 875 650 L 850 650 L 850 675 L 838 675 L 838 700 L 813 700 L 813 725 L 800 725 L 800 750 L 788 750 L 788 800 L 775 800 L 775 850 L 788 850 L 788 925 L 763 925 L 763 950 L 600 950 L 600 975 L 575 975 L 575 1000 L 550 1000 L 550 1050 L 538 1050 L 538 1125 L 525 1125 L 525 1200 L 538 1200 L 538 1375 L 550 1375 L 550 1425 L 563 1425 L 563 1475 L 575 1475 L 575 1500 L 600 1500 L 600 1525 L 638 1525 L 638 1550 L 688 1550 L 688 1575 L 750 1575 L 750 1600 L 775 1600 L 775 1625 L 788 1625 L 788 1650 L 800 1650 L 800 1700 L 788 1700 L 788 1850 L 800 1850 L 800 1875 L 813 1875 L 813 1900 L 838 1900 L 838 1925 L 863 1925 L 863 1950 L 888 1950 L 888 1975 L 925 1975 L 925 2000 L 975 2000 L 975 2025 L 1100 2025 L 1100 2000 L 1163 2000 L 1163 1975 L 1200 1975 L 1200 1950 L 1238 1950 L 1238 1925 L 1288 1925 L 1288 1900 L 1338 1900 L 1338 1875 L 1600 1875 L 1600 1900 L 1713 1900 L 1713 1875 L 1775 1875 L 1775 1850 L 1800 1850 L 1800 1825 L 1825 1825 L 1825 1800 L 1838 1800 L 1838 1775 L 1850 1775 L 1850 1750 L 1863 1750 L 1863 1725 L 1875 1725 L 1875 1575 L 1863 1575 L 1863 1550 L 1850 1550 L 1850 1500 L 1838 1500 L 1838 1475 L 1825 1475 L 1825 1425 L 1838 1425 L 1838 1400 L 1850 1400 L 1850 1375 L 1875 1375 L 1875 1350 L 1900 1350 L 1900 1325 L 1925 1325 L 1925 1300 L 1938 1300 L 1938 1275 L 1963 1275 L 1963 1250 L 1975 1250 L 1975 1125 L 1963 1125 L 1963 1075 L 1950 1075 L 1950 1025 L 1938 1025 L 1938 975 L 1925 975 L 1925 950 L 1913 950 L 1913 925 L 1900 925 L 1900 900 L 1888 900 L 1888 875 L 1863 875 L 1863 850 L 1825 850 L 1825 825 L 1788 825 L 1788 850 L 1700 850 L 1700 825 L 1688 825 L 1688 675 L 1675 675 L 1675 650 L 1663 650 L 1663 625 L 1625 625 L 1625 600 L 1588 600 L 1588 575 L 1563 575 L 1563 550 L 1513 550 L 1513 525 L 1475 525 L 1475 500 L 1413 500 L 1413 475 Z M 1338 625 L 1450 625 L 1450 650 L 1488 650 L 1488 675 L 1513 675 L 1513 700 L 1538 700 L 1538 725 L 1563 725 L 1563 750 L 1588 750 L 1588 775 L 1600 775 L 1600 900 L 1588 900 L 1588 925 L 1575 925 L 1575 975 L 1563 975 L 1563 1000 L 1550 1000 L 1550 1025 L 1525 1025 L 1525 1050 L 1500 1050 L 1500 1075 L 1450 1075 L 1450 1100 L 1388 1100 L 1388 1075 L 1350 1075 L 1350 1050 L 1338 1050 L 1338 1025 L 1325 1025 L 1325 1000 L 1313 1000 L 1313 950 L 1300 950 L 1300 700 L 1313 700 L 1313 675 L 1325 675 L 1325 650 L 1338 650 Z M 1013 650 L 1075 650 L 1075 675 L 1113 675 L 1113 700 L 1125 700 L 1125 725 L 1138 725 L 1138 750 L 1150 750 L 1150 775 L 1163 775 L 1163 825 L 1175 825 L 1175 875 L 1188 875 L 1188 925 L 1200 925 L 1200 1000 L 1213 1000 L 1213 1025 L 1200 1025 L 1200 1100 L 1175 1100 L 1175 1125 L 1138 1125 L 1138 1150 L 1063 1150 L 1063 1125 L 988 1125 L 988 1100 L 938 1100 L 938 1075 L 913 1075 L 913 1050 L 888 1050 L 888 1025 L 875 1025 L 875 975 L 863 975 L 863 925 L 875 925 L 875 875 L 888 875 L 888 825 L 900 825 L 900 800 L 913 800 L 913 775 L 925 775 L 925 750 L 938 750 L 938 725 L 950 725 L 950 700 L 975 700 L 975 675 L 1013 675 Z M 1750 925 L 1775 925 L 1775 950 L 1813 950 L 1813 975 L 1838 975 L 1838 1025 L 1850 1025 L 1850 1075 L 1863 1075 L 1863 1200 L 1850 1200 L 1850 1250 L 1838 1250 L 1838 1275 L 1825 1275 L 1825 1300 L 1800 1300 L 1800 1325 L 1688 1325 L 1688 1300 L 1650 1300 L 1650 1275 L 1625 1275 L 1625 1250 L 1600 1250 L 1600 1225 L 1588 1225 L 1588 1200 L 1575 1200 L 1575 1150 L 1588 1150 L 1588 1125 L 1600 1125 L 1600 1100 L 1613 1100 L 1613 1075 L 1625 1075 L 1625 1050 L 1638 1050 L 1638 1025 L 1663 1025 L 1663 1000 L 1675 1000 L 1675 975 L 1700 975 L 1700 950 L 1750 950 Z M 700 1050 L 725 1050 L 725 1075 L 788 1075 L 788 1100 L 825 1100 L 825 1125 L 850 1125 L 850 1150 L 888 1150 L 888 1175 L 913 1175 L 913 1200 L 925 1200 L 925 1225 L 938 1225 L 938 1275 L 950 1275 L 950 1400 L 938 1400 L 938 1450 L 925 1450 L 925 1475 L 863 1475 L 863 1500 L 838 1500 L 838 1475 L 738 1475 L 738 1450 L 700 1450 L 700 1425 L 675 1425 L 675 1400 L 663 1400 L 663 1375 L 650 1375 L 650 1325 L 638 1325 L 638 1125 L 650 1125 L 650 1100 L 663 1100 L 663 1075 L 700 1075 Z M 1238 1200 L 1388 1200 L 1388 1225 L 1438 1225 L 1438 1250 L 1463 1250 L 1463 1275 L 1488 1275 L 1488 1300 L 1500 1300 L 1500 1325 L 1525 1325 L 1525 1350 L 1550 1350 L 1550 1375 L 1575 1375 L 1575 1400 L 1638 1400 L 1638 1425 L 1675 1425 L 1675 1450 L 1713 1450 L 1713 1475 L 1725 1475 L 1725 1500 L 1738 1500 L 1738 1525 L 1750 1525 L 1750 1550 L 1763 1550 L 1763 1675 L 1750 1675 L 1750 1700 L 1738 1700 L 1738 1725 L 1725 1725 L 1725 1750 L 1688 1750 L 1688 1775 L 1513 1775 L 1513 1750 L 1325 1750 L 1325 1775 L 1263 1775 L 1263 1800 L 1225 1800 L 1225 1825 L 1188 1825 L 1188 1850 L 1138 1850 L 1138 1875 L 975 1875 L 975 1850 L 938 1850 L 938 1825 L 925 1825 L 925 1800 L 913 1800 L 913 1775 L 900 1775 L 900 1750 L 888 1750 L 888 1650 L 900 1650 L 900 1625 L 913 1625 L 913 1600 L 938 1600 L 938 1575 L 963 1575 L 963 1550 L 988 1550 L 988 1525 L 1013 1525 L 1013 1500 L 1025 1500 L 1025 1475 L 1050 1475 L 1050 1450 L 1063 1450 L 1063 1425 L 1075 1425 L 1075 1400 L 1088 1400 L 1088 1375 L 1100 1375 L 1100 1325 L 1113 1325 L 1113 1300 L 1138 1300 L 1138 1275 L 1150 1275 L 1150 1250 L 1188 1250 L 1188 1225 L 1238 1225 Z" /></svg>